<svg width="100" height="100" viewBox="0 0 100 100" fill="none" xmlns="http://www.w3.org/2000/svg">
<rect x="0.5" y="0.5" width="99" height="99" rx="19.5" fill="white" stroke="black"/>
<path d="M34.438 18.458C34.1946 19.0894 32.4302 23.2686 28.597 32.2586C27.2585 35.3856 25.4636 39.5949 24.6422 41.5793C23.8209 43.5638 21.6001 48.8254 19.7139 53.3054C11.713 72.2776 7.91034 81.5682 8.0016 81.7486C8.15371 81.9892 17.3106 82.1094 17.9191 81.8689C18.2233 81.7486 19.6227 78.6818 21.5697 73.8711L24.7031 66.0838H34.9552H45.1768L45.8461 67.6473C46.2416 68.5192 47.641 71.9468 48.9795 75.2542C50.3181 78.5615 51.5045 81.3578 51.6262 81.5081C51.7479 81.6284 54.1208 81.8088 56.9196 81.899C61.1786 82.0192 62 81.9892 62 81.6284C62 81.3878 61.0569 78.9825 59.9009 76.2765C58.7449 73.5704 57.1021 69.7219 56.2807 67.7375C53.5428 61.2731 47.3672 46.7508 46.0286 43.684C45.3289 42.0303 43.1994 37.0994 41.3133 32.7096C34.4684 16.7141 34.8031 17.4357 34.438 18.458ZM35.594 43.8945C35.8678 44.6161 36.75 46.6606 37.5106 48.4947C38.3015 50.2987 39.3359 52.7041 39.8226 53.8165L40.6744 55.8611H35.0464H29.4184L29.6314 55.1695C30.1486 53.5159 34.7118 42.6317 34.8943 42.6317C35.016 42.6317 35.3202 43.203 35.594 43.8945Z" fill="black"/>
<path d="M55.2167 23.1557C55.0929 23.2445 55 25.3774 55 27.8954V32.4279H62.5858H70.1715V57.0154C70.1715 80.1811 70.2025 81.6327 70.7289 81.84C71.1623 82.0178 74.8159 82.0474 79.5531 81.9289L80.3891 81.8993V57.1636V32.4279L86.21 32.3686L92 32.2797V27.6881V23.0964L73.7013 23.0075C63.6385 22.9779 55.3096 23.0372 55.2167 23.1557Z" fill="black"/>
</svg>
