<svg width="66" height="29" viewBox="0 0 66 29" fill="none" xmlns="http://www.w3.org/2000/svg">
    <path d="M8.77726 0.152151C8.69646 0.361389 8.11067 1.74634 6.83809 4.72548C6.3937 5.7617 5.79782 7.15661 5.52512 7.81421C5.25243 8.47182 4.51514 10.2155 3.88895 11.7C1.23271 17.9871 -0.0297669 21.0659 0.000532444 21.1257C0.0510314 21.2054 3.09107 21.2452 3.29307 21.1655C3.39406 21.1257 3.85865 20.1094 4.50504 18.5152L5.54532 15.9346H8.94895H12.3425L12.5647 16.4527C12.696 16.7417 13.1606 17.8775 13.605 18.9735C14.0493 20.0695 14.4432 20.9962 14.4836 21.046C14.524 21.0858 15.3118 21.1456 16.241 21.1755C17.655 21.2154 17.9277 21.2054 17.9277 21.0858C17.9277 21.0061 17.6146 20.209 17.2308 19.3123C16.847 18.4156 16.3016 17.1402 16.0289 16.4826C15.1199 14.3404 13.0697 9.52797 12.6253 8.51167C12.393 7.96367 11.686 6.32963 11.0598 4.87493C8.78735 -0.425743 8.89845 -0.186613 8.77726 0.152151ZM9.16105 8.58142C9.25195 8.82055 9.54484 9.49807 9.79733 10.1059C10.0599 10.7037 10.4033 11.5008 10.5649 11.8694L10.8477 12.547H8.97925H7.11079L7.18149 12.3178C7.35318 11.7698 8.86815 8.16294 8.92875 8.16294C8.96915 8.16294 9.07015 8.35225 9.16105 8.58142Z"/>
    <path d="M43.2714 1.55752C42.928 2.36458 42.322 3.76946 41.9382 4.67615C41.5443 5.58285 41.0898 6.65892 40.9282 7.06743C40.7666 7.47594 40.5646 7.94424 40.4939 8.11362C40.1909 8.77122 37.3125 15.7757 37.3125 15.8554C37.3125 15.8952 39.5951 15.9451 42.3826 15.955L47.4527 15.9849L48.4829 18.5257L49.5131 21.0664L51.2906 21.0963L53.0581 21.1162L52.9268 20.7476C52.8561 20.5383 52.3107 19.253 51.7148 17.8979C51.129 16.5329 50.1897 14.3409 49.6241 13.0157C49.0586 11.6906 48.2506 9.77755 47.8163 8.76126C47.382 7.74496 46.6548 6.04117 46.2003 4.97506C44.4834 0.949738 44.1198 0.152643 44.0188 0.122753C43.9481 0.102825 43.6249 0.720573 43.2714 1.55752ZM44.5339 9.27937C44.8065 9.89712 45.2105 10.8636 45.4529 11.4216C45.6953 11.9895 45.8973 12.4677 45.8973 12.4976C45.8973 12.5275 45.059 12.5475 44.039 12.5475H42.1806L42.9886 10.5746C43.433 9.49857 43.837 8.51217 43.8875 8.38264C43.9279 8.26307 43.9885 8.16344 44.0188 8.16344C44.039 8.16344 44.2713 8.67158 44.5339 9.27937Z"/>
    <path d="M58.1834 1.24803C57.3047 1.45727 56.2644 2.04512 55.5978 2.69276C54.5575 3.72898 54.1031 4.74528 54.0122 6.26972C53.9112 7.97351 54.4364 9.29868 55.6988 10.5541C56.6381 11.4907 57.3754 11.8793 59.4559 12.5568C61.1527 13.1048 61.9102 13.5233 62.3041 14.1211C63.2131 15.4662 62.5465 17.2995 60.9305 17.8874C60.3245 18.1165 59.2035 18.1165 58.547 17.8874C57.9814 17.6981 57.1835 17.1301 56.6078 16.5124L56.2543 16.1238L55.1736 17.2696C54.5676 17.8973 54.0829 18.4453 54.0829 18.4852C54.0829 18.6147 54.8201 19.3719 55.4059 19.8402C56.6078 20.7868 58.0117 21.2451 59.7387 21.2451C61.6678 21.2451 63.1323 20.6772 64.3342 19.4815C65.1623 18.6446 65.5259 18.0269 65.7986 16.9707C66.5258 14.1809 65.2633 11.4907 62.6475 10.2253C62.1324 9.97621 61.1628 9.60755 60.4962 9.40828C58.9914 8.94995 58.6278 8.7706 58.0117 8.16282C56.3149 6.48892 57.6784 4.11757 60.2437 4.29691C61.1224 4.36666 61.8193 4.73532 62.4758 5.47263L62.9707 6.03059L64.0918 4.95452C65.2027 3.8884 65.2229 3.86847 65.0815 3.60942C65.0108 3.46993 64.6674 3.10127 64.324 2.7924C62.9707 1.57683 61.6678 1.07865 59.8498 1.09858C59.2641 1.09858 58.5167 1.16832 58.1834 1.24803Z"/>
    <path d="M15.6723 1.35757C15.6319 1.38747 15.6016 2.10485 15.6016 2.95176V4.4762H18.076H20.5505V12.7461C20.5505 20.5376 20.5606 21.0259 20.7323 21.0956C20.8737 21.1554 22.0654 21.1654 23.6107 21.1255L23.8834 21.1155V12.7959V4.4762L25.7822 4.45628L27.6708 4.42639V2.88202V1.33765L21.7018 1.30776C18.4194 1.29779 15.7026 1.31772 15.6723 1.35757Z"/>
    <path d="M29.9223 1.34639C29.8819 1.38624 29.8516 5.83004 29.8516 11.2104V21.0047L30.0637 21.1243C30.2051 21.194 30.7706 21.2239 31.6089 21.214C32.3361 21.204 35.0833 21.1641 37.7092 21.1442L42.4864 21.0944L42.4561 19.5799L42.4258 18.0754L37.8102 18.0455L33.1845 18.0256L33.1643 9.67602L33.134 1.33643L31.5584 1.30653C30.6999 1.29657 29.9627 1.3165 29.9223 1.34639Z"/>
    <path d="M18.3062 26.3659L18.0234 26.4057V27.701V28.9863H18.3365C18.5789 28.9863 18.6395 28.9564 18.589 28.8269C18.5587 28.7472 18.5587 28.5679 18.589 28.4383C18.6294 28.259 18.7304 28.1992 19.1041 28.1593C19.9929 28.0597 20.407 27.2028 19.8414 26.6548C19.5788 26.4157 18.8819 26.2862 18.3062 26.3659ZM19.4778 27.1132C19.6495 27.3822 19.4273 27.6313 18.993 27.6711L18.6294 27.701V27.2925V26.884L18.993 26.9139C19.2152 26.9338 19.4172 27.0135 19.4778 27.1132Z"/>
    <path d="M24.7324 26.4357C23.8032 26.8342 23.682 28.269 24.5405 28.7871C25.1667 29.1757 26.0353 28.9764 26.409 28.3586C26.8028 27.721 26.5604 26.8242 25.904 26.4755C25.4899 26.2663 25.1667 26.2563 24.7324 26.4357ZM25.6717 26.9936C26.2373 27.3324 26.2171 28.1793 25.6414 28.3885C25.2475 28.538 24.9748 28.5081 24.7223 28.269C24.3991 27.9701 24.3991 27.3722 24.7425 27.0434C25.0354 26.7445 25.2475 26.7346 25.6717 26.9936Z"/>
    <path d="M30.6867 26.4356C29.3636 27.0235 29.7474 28.9863 31.1917 28.9863C31.9391 28.9863 32.5653 28.3686 32.5653 27.6213C32.5653 26.7644 31.4846 26.0769 30.6867 26.4356ZM31.4947 26.9338C31.9795 27.1331 32.1714 27.701 31.8886 28.0796C31.4644 28.6276 30.7675 28.5778 30.4746 27.97C30.3029 27.6313 30.4746 27.1331 30.8382 26.9438C31.1614 26.7644 31.1008 26.7644 31.4947 26.9338Z"/>
    <path d="M35.6391 26.3958C35.3563 26.5054 35.0938 26.874 35.0938 27.143C35.0938 27.422 35.4573 27.7409 35.9522 27.8903C36.4774 28.0497 36.5683 28.1394 36.4067 28.3387C36.2451 28.528 35.7603 28.538 35.5987 28.3387C35.3765 28.0796 35.0938 28.2191 35.0938 28.5977C35.0938 28.7572 35.6795 28.9863 36.0835 28.9863C36.7804 28.9863 37.2147 28.3586 36.9117 27.7907C36.8612 27.6911 36.5885 27.5316 36.3158 27.442C35.6997 27.2427 35.528 27.0733 35.7603 26.894C35.8815 26.7844 35.9825 26.7844 36.2754 26.884C36.6693 27.0235 36.8814 26.9238 36.7804 26.6548C36.6592 26.3559 36.0633 26.2264 35.6391 26.3958Z"/>
    <path d="M43.912 26.3659C43.6898 26.4057 43.6797 26.4456 43.6797 27.701V28.9863H44.2352C45.3462 28.9863 45.9016 28.528 45.9016 27.6313C45.9016 27.1929 45.8511 27.0434 45.6289 26.7943C45.2654 26.3958 44.619 26.2364 43.912 26.3659ZM45.1745 27.1231C45.326 27.2626 45.3967 27.442 45.3967 27.6711C45.3967 28.1693 45.1543 28.3885 44.619 28.3885H44.1847V27.6512C44.1847 27.153 44.2251 26.894 44.316 26.8641C44.518 26.7844 44.9321 26.9039 45.1745 27.1231Z"/>
    <path d="M48.9785 26.4364C48.5745 26.6158 48.322 26.9047 48.2311 27.3132C47.9786 28.4092 48.8573 29.2163 49.9481 28.8975C50.7763 28.6484 51.1298 27.5424 50.5844 26.8948C50.0996 26.3268 49.5744 26.1774 48.9785 26.4364ZM49.837 26.9446C50.3925 27.2335 50.4935 27.7018 50.0794 28.1801C49.5845 28.7679 48.726 28.4292 48.726 27.642C48.726 27.393 48.8068 27.2036 48.9785 27.0442C49.2613 26.7553 49.433 26.7354 49.837 26.9446Z"/>
    <path d="M20.8685 27.6911L20.8988 28.9863H21.1715C21.3836 28.9863 21.4442 28.9465 21.4341 28.7572C21.424 28.6376 21.424 28.3885 21.4341 28.2092C21.4543 27.8604 21.5856 27.8206 22.2522 27.9501C22.5552 28.0099 22.5653 28.0398 22.5653 28.4981C22.5653 28.9564 22.5855 28.9863 22.8178 28.9863H23.0703V27.6911V26.3958H22.8178C22.5855 26.3958 22.5653 26.4257 22.5653 26.894V27.3921H22.0098H21.4543V26.894C21.4543 26.4057 21.4543 26.3958 21.1412 26.3958H20.8281L20.8685 27.6911Z"/>
    <path d="M27.2188 26.6449C27.2188 26.8641 27.2591 26.894 27.6126 26.894C27.8651 26.894 28.0065 26.9438 27.9964 27.0135C27.9964 27.0833 28.0065 27.5615 28.0065 28.0597C28.0267 28.9764 28.0267 28.9863 28.2792 28.9863H28.5317V27.9401V26.894H28.9256C29.2589 26.894 29.3195 26.8641 29.3599 26.6449L29.4104 26.3958H28.3196H27.2188V26.6449Z"/>
    <path d="M37.625 26.6451C37.625 26.8643 37.6654 26.8942 38.029 26.8942H38.433V27.9404V28.9866H38.6855H38.938V27.9404V26.8942H39.342C39.7056 26.8942 39.746 26.8643 39.746 26.6451V26.396H38.6855H37.625V26.6451Z"/>
    <path d="M40.5547 27.4025C40.5547 28.379 40.5648 28.4088 40.8476 28.6978C41.2415 29.0764 41.9182 29.1063 42.3323 28.7476C42.5645 28.5583 42.6251 28.4088 42.6857 27.831C42.7362 27.4523 42.7665 26.9741 42.7665 26.7648C42.7766 26.4161 42.7564 26.3962 42.4736 26.3962H42.1707V27.3228C42.1707 28.3291 42.1 28.4886 41.6657 28.4886C41.191 28.4886 41.0597 28.2195 41.0597 27.263C41.0597 26.4061 41.0597 26.3962 40.8072 26.3962H40.5547V27.4025Z"/>
    <path d="M46.8203 27.6911V28.9863H47.0728H47.3253V27.6911V26.3958H47.0728H46.8203V27.6911Z"/>
    <path d="M9.27396 27.1733C9.00127 27.2131 8.95077 27.6316 9.20327 27.7312C9.29416 27.7611 10.7687 27.791 12.4756 27.791C15.3843 27.791 15.6065 27.7811 15.6974 27.6117C15.7479 27.512 15.7681 27.3825 15.7277 27.3227C15.657 27.2231 9.87995 27.0936 9.27396 27.1733Z"/>
    <path d="M53.228 27.3526C53.0664 27.7711 53.228 27.791 56.8033 27.791C60.3787 27.791 60.5402 27.7711 60.3787 27.3526C60.3282 27.2131 59.9545 27.1932 56.8033 27.1932C53.6522 27.1932 53.2785 27.2131 53.228 27.3526Z"/>
</svg>
